<svg id="Layer_1" data-name="Layer 1" xmlns="http://www.w3.org/2000/svg" viewBox="0 0 1123 1104"><defs><style>.cls-1{fill:#fff;}</style></defs><title>vpf_logo</title><path class="cls-1" d="M230.5,897.17C108.91,897.17,10,797.74,10,675.54V508.14c0-122.2,98.91-221.63,220.5-221.63S451,385.94,451,508.14v167.4C451,797.74,352.08,897.17,230.5,897.17Zm0-604c-117.9,0-213.82,96.43-213.82,215v167.4c0,118.52,95.92,215,213.82,215s213.81-96.43,213.81-215V508.14C444.31,389.62,348.39,293.19,230.5,293.19Z"/><path class="cls-1" d="M226,774.93a126.52,126.52,0,0,1-86.66-35c38.93-8.75,71.52,19.53,115.94,5.35,20.73-5.46,37.65-10.47,57.18-5.1A125.54,125.54,0,0,1,226,774.93M358.24,661.75c-19.93-15.77-36.73-21.86-52.31-23.19-1.54,3.08-3.18,6.07-4.95,9,14.66.55,30,5.11,47.42,18a4.4,4.4,0,0,1,1.71,4.25,124.2,124.2,0,0,1-8,27.29c-23.91-14.72-52.45-16.09-80.28-8.52a205.84,205.84,0,0,1-25.07,15,89.3,89.3,0,0,0,18.48-3.53c28.51-9.91,59.19-9.94,83,5.34a126.4,126.4,0,0,1-18.66,27.39c-22.52-7.53-43.11-2.83-66.66,3.76-40.6,14-81.4-17.45-120.87-4a126,126,0,0,1-18.8-27.63c36.76-22.52,66.5-6.44,100.5-2a245.47,245.47,0,0,1-21.34-13c-26.47-5.67-51.89-12.16-82.93,6.79a124.88,124.88,0,0,1-7.74-26.91,4.44,4.44,0,0,1,1.63-4.21,88.47,88.47,0,0,1,47-17.8c-1.75-2.76-3.38-5.6-4.86-8.49-19.63,2.53-37.88,10.36-52,22.5a4.4,4.4,0,0,0-1.48,4c22.6,155.82,244.86,156.6,267.72.09a4.46,4.46,0,0,0-1.58-4.06"/><path class="cls-1" d="M226,678.89c-30.92-16.72-50.09-35.25-60.26-58.16-9.17-20.68-11.28-43.9-11.45-76.36h55.92c4.13,10.34,9.52,30.22,7.55,60.63a4.53,4.53,0,0,0,8.6,2.24c11.49-24,11.42-43.82,11.09-62.87h60.14C297.08,608,284.77,648.72,226,678.89M212,478a4.53,4.53,0,0,0-3.45-7.46H198l23.78-28a4.51,4.51,0,0,0-3.44-7.45h-8.66l20.81-24.48,20.8,24.48h-8.66a4.52,4.52,0,0,0-3.44,7.45l23.76,28H252.48A4.53,4.53,0,0,0,249,478L275,508.55H186Zm90.19,57.29H237.4V517.61h47.34a4.53,4.53,0,0,0,3.45-7.46l-25.93-30.52h10.48a4.53,4.53,0,0,0,3.45-7.46l-23.77-28h8.67a4.53,4.53,0,0,0,3.44-7.46l-30.59-36a4.53,4.53,0,0,0-6.89,0l-30.59,36a4.53,4.53,0,0,0,3.45,7.46h8.65l-23.79,28a4.53,4.53,0,0,0,3.46,7.46h10.5L172.8,510.15a4.53,4.53,0,0,0,3.45,7.46h52.1v22.3l.06,3.31c.19,11.39.38,22.39-1.73,34.17-1.49-18-5.54-30.92-9.31-39.39a4.53,4.53,0,0,0-4.14-2.68H149.78a4.53,4.53,0,0,0-4.53,4.53c0,35.15,2.05,61.55,12.23,84.55C168.74,649.77,189.83,670,223.84,688a4.6,4.6,0,0,0,2.13.53,4.44,4.44,0,0,0,2-.48c32.38-16.18,53-35.89,64.91-62,12.11-26.61,13.79-57.13,13.79-86.13a4.53,4.53,0,0,0-4.53-4.53"/><path class="cls-1" d="M401.08,576.42c-4.51,9.75-14,15.42-25.66,15.42a41.3,41.3,0,0,1-10.52-1.42c-2.51-40.36,29.42-26.35,27.49-54.43,12.74,12.74,14.47,27.89,8.69,40.43m-2.29-46.83a9,9,0,0,0-6.4-2.65,9.18,9.18,0,0,0-3.75.81,9.07,9.07,0,0,0-5.28,8.86c.52,7.52-1.61,8.93-7.93,13.11-8.47,5.59-21.26,14-19.57,41.25A9.5,9.5,0,0,0,356,592a1.74,1.74,0,0,0-.12.14c-5.12,7.18-6.65,15.82-4.1,23.08a4.52,4.52,0,0,0,4.27,3,4.63,4.63,0,0,0,1.5-.25,4.53,4.53,0,0,0,2.77-5.77c-1.41-4-.68-8.83,1.9-13.22.12,0,.23.09.35.12a50.23,50.23,0,0,0,12.84,1.73c15.23,0,27.9-7.73,33.88-20.68,7.93-17.19,4-36.11-10.51-50.62"/><path class="cls-1" d="M95.52,590.41A41.09,41.09,0,0,1,85,591.84c-11.69,0-21.15-5.67-25.65-15.42-5.79-12.54-4-27.69,8.69-40.43-1.93,28.07,30,14.06,27.5,54.42M104.4,592c.06-.35.12-.7.15-1.07,1.68-27.2-11.1-35.66-19.57-41.25-6.25-4.14-8.4-5.56-8-12.86a8.31,8.31,0,0,0,0-.87,9.05,9.05,0,0,0-8.75-9h-.7a9,9,0,0,0-5.52,2.19h0a5.77,5.77,0,0,0-.44.42C47.11,544.1,43.18,563,51.12,580.21c6,12.95,18.63,20.68,33.86,20.68a50.3,50.3,0,0,0,12.85-1.73c.12,0,.23-.08.35-.12,2.58,4.39,3.3,9.22,1.9,13.21a4.52,4.52,0,0,0,2.77,5.77,4.35,4.35,0,0,0,1.5.26,4.53,4.53,0,0,0,4.27-3c2.55-7.27,1-15.9-4.1-23.08l-.12-.14"/><path class="cls-1" d="M615.67,356.41q4.85,0,4.85,4.07v.78q0,2.89-4.66,7.76a36.34,36.34,0,0,0-7.18,10.66L565,483.26q-4.45,10.88-15.51,10.87-9.72,0-14.36-10.09L486.68,379.68a40.09,40.09,0,0,0-7.08-10.18q-4.75-5.13-4.75-8.24v-.78c0-2.71,1.62-4.07,4.84-4.07h58.2q4.85,0,4.84,4.07v.78q0,2.33-3.1,5.14a32.88,32.88,0,0,0-5.24,6,7.58,7.58,0,0,0-.58,7.27l27.35,69.45,26.38-69.45a7.74,7.74,0,0,0,.19-6.1,10.92,10.92,0,0,0-3.19-4.46,35.08,35.08,0,0,1-4-3.79,6.25,6.25,0,0,1-1.94-4.07v-.78q0-4.07,4.85-4.07Z"/><path class="cls-1" d="M697.52,479.77q16.1,0,16.1-21.72,0-14.74-6.21-35.21a145.94,145.94,0,0,0-16.29-36.27q-10.1-15.81-19.59-15.81-15.72,0-15.71,22.31,0,17.07,6.11,37.44T678,465.32q10,14.46,19.49,14.45m-11.64,16.3q-27.54,0-48-19.4t-20.47-50.43q0-32.21,18.82-52t49.65-19.78q27.95,0,48.39,20.17t20.47,51.6q0,31.42-19.78,50.62t-49.08,19.21"/><path class="cls-1" d="M769.87,494.13q-4.85,0-4.85-4.08v-.77q0-2.52,4-7.86t4-10.57V379.69q0-5.25-4-10.58t-4-7.85v-.78q0-4.07,4.85-4.07H817.4q4.85,0,4.84,4.07v.78q0,2.52-4.46,7.85t-4.46,10.58V465a18.34,18.34,0,0,0,2.53,9.89,8.46,8.46,0,0,0,7.76,4.07h14a15.47,15.47,0,0,0,10.86-4.55,34.11,34.11,0,0,0,7.47-10,65.9,65.9,0,0,1,5.91-10q3.3-4.56,6.6-4.56h2.91a4.42,4.42,0,0,1,3.68,1.46,4.56,4.56,0,0,1,.78,3.78l-5.24,32.2c-.38,2.45-1.13,4.2-2.23,5.23a7,7,0,0,1-4.95,1.56Z"/><path class="cls-1" d="M899.64,494.13q-4.67,0-4.66-4.08v-.77q0-2.52,4.27-7.86t4.27-10.57V372.7H897.7a12.27,12.27,0,0,0-8.63,3.79,29.51,29.51,0,0,0-6.21,8.24,43.75,43.75,0,0,1-5.34,8.24q-3.1,3.78-6.39,3.78h-3.7a5.53,5.53,0,0,1-4.26-1.65,5,5,0,0,1-1.17-4.36l3.89-27.93q.76-6.4,7.17-6.4H973.54q6.4,0,7.18,6.4l3.87,27.93a5,5,0,0,1-1.15,4.36,5.59,5.59,0,0,1-4.28,1.65h-3.68q-3.3,0-6.41-3.78a44.2,44.2,0,0,1-5.33-8.24,29.86,29.86,0,0,0-6.2-8.24,12.34,12.34,0,0,0-8.63-3.79h-5.83v98.15q0,5.23,4.37,10.57t4.36,7.86v.77q0,4.08-4.85,4.08Z"/><path class="cls-1" d="M1013.11,445.64h34.14l-16.68-49.08Zm88.06,25.21a36,36,0,0,0,7.08,10.47q4.76,5.06,4.75,7.95v.79q0,4.06-4.85,4.07h-56.44c-3.24,0-4.85-1.36-4.85-4.07v-.79a6.41,6.41,0,0,1,1.84-4.07,31.32,31.32,0,0,1,3.88-3.78,10.91,10.91,0,0,0,3.2-4.46,8.26,8.26,0,0,0,0-6.11l-3.11-8.92h-45.38l-3.11,8.92a8.36,8.36,0,0,0,0,6.11,11,11,0,0,0,3.21,4.46,32.78,32.78,0,0,1,3.88,3.78,6.46,6.46,0,0,1,1.84,4.07v.79q0,4.06-4.85,4.07H976.64c-3.24,0-4.84-1.36-4.84-4.07v-.79c0-1.93,1.6-4.52,4.84-7.76a29.06,29.06,0,0,0,7-10.66l34.53-89.42q1.74-4.65-2.81-11.64t-4.56-8.53v-.78q0-4.07,4.85-4.07h28.7q10.1,0,14.36,10.08Z"/><path class="cls-1" d="M558.8,632.05h5.43q7,0,10.38-7.08t3.4-17.16q0-17.46-6.5-29.1t-14.06-11.64h-.59q-7.56,0-7.56,10.09V622q0,10.1,9.5,10.09m-52.95,57.8c-3.23,0-4.85-1.35-4.85-4.07V685c0-1.69,1.32-4.3,4-7.86s4-7.08,4-10.57V575.41q0-5.24-4-10.57c-2.65-3.56-4-6.17-4-7.85v-.78q0-4.07,4.85-4.07h51.6q28.5,0,45.28,11.44t16.78,34.92q0,21.72-15.22,35.1T564.23,647H549.3v19.6q0,5.24,4.46,10.57c3,3.56,4.46,6.17,4.46,7.86v.77c0,2.72-1.62,4.07-4.85,4.07Z"/><path class="cls-1" d="M628.43,685.78V685c0-1.69,1.33-4.3,4-7.86s4-7.08,4-10.57V575.41q0-5.24-4-10.57c-2.65-3.56-4-6.17-4-7.85v-.78q0-4.07,4.85-4.07h47c3.22,0,4.84,1.36,4.84,4.07V557q0,2.52-4.46,7.85t-4.46,10.57v91.17q0,5.24,4.46,10.57c3,3.56,4.46,6.17,4.46,7.86v.77c0,2.71-1.62,4.07-4.84,4.07h-47q-4.85,0-4.85-4.07"/><path class="cls-1" d="M830,552.14c3.22,0,4.85,1.35,4.85,4.07V557q0,2.52-4.46,7.85t-4.46,10.57V679.77q0,10.08-10.09,10.09H803.2q-6,0-11.25-6.8l-65.56-86.12v69.64q0,5.24,4.66,10.57T735.7,685v.77c0,2.71-1.62,4.08-4.85,4.08h-27c-3.23,0-4.86-1.37-4.86-4.08V685q0-2.52,4-7.86t4-10.57V575.41q0-5.24-4-10.57T699,557v-.78c0-2.72,1.63-4.07,4.86-4.07h33q6.21,0,11.25,6.78L806.5,640v-64.6q0-5.24-4.37-10.57T797.77,557v-.78c0-2.72,1.62-4.07,4.85-4.07Z"/><path class="cls-1" d="M851.69,689.85c-3.23,0-4.85-1.35-4.85-4.07V685c0-1.69,1.33-4.3,4-7.86s4-7.08,4-10.57V575.41q0-5.24-4-10.57c-2.65-3.56-4-6.17-4-7.85v-.78q0-4.07,4.85-4.07h90.4q3.48,0,5,1.45a8.65,8.65,0,0,1,2.13,4.95l4.65,26a5,5,0,0,1-1.16,4.37,5.61,5.61,0,0,1-4.27,1.65h-1.16c-2.72,0-5.43-1.23-8.15-3.69a46.23,46.23,0,0,1-7.07-8.05,37.18,37.18,0,0,0-7.67-8,15.21,15.21,0,0,0-9.5-3.69H904.06q-9.69,0-9.69,10.09v35.3h16.49a9.8,9.8,0,0,0,6.78-2.62,18,18,0,0,0,4.37-5.72,31.52,31.52,0,0,1,3.4-5.72c1.28-1.75,2.58-2.62,3.87-2.62h1.94q4.08,0,4.08,4.85v37.82q0,4.86-4.08,4.86h-1.94c-1.29,0-2.59-.81-3.87-2.43a27.25,27.25,0,0,1-3.4-5.43,16.26,16.26,0,0,0-4.37-5.43,10.26,10.26,0,0,0-6.78-2.43H894.37V659.4a19.51,19.51,0,0,0,3,10.86q3,4.66,9.8,4.66h14a13.36,13.36,0,0,0,9.12-3.88,33.5,33.5,0,0,0,6.89-8.63,38,38,0,0,1,6.5-8.63q3.87-3.88,8.14-3.88h1.94a4.16,4.16,0,0,1,3.78,2,6.19,6.19,0,0,1,.88,4.37l-4.27,26.76q-.58,3.69-2.13,5.24c-1.05,1-2.72,1.55-5.05,1.55Z"/><path class="cls-1" d="M503.29,824.24c-1.53,0-2.3-.43-2.3-1.31v-.22c0-.5.68-1.28,2-2.33a4.69,4.69,0,0,0,2-3.76V754.53a4.17,4.17,0,0,0-.66-2.39,4.43,4.43,0,0,0-1.36-1.42,9.27,9.27,0,0,1-1.36-1,1.72,1.72,0,0,1-.66-1.25v-.22c0-.87.66-1.31,2-1.31h45.85c1.46,0,2.37.84,2.73,2.51l2.62,10.79c.36,1.45-.12,2.17-1.42,2.17h-.44c-.94,0-2-.9-3.16-2.72s-2.46-3.65-3.92-5.5-3-2.78-4.68-2.78H518.1q-3.17,0-3.16,3.49v30.93h20.15a3,3,0,0,0,2.18-1,6.28,6.28,0,0,0,1.47-2.24,11.68,11.68,0,0,1,1.15-2.23,1.78,1.78,0,0,1,1.41-1H542q1.41,0,1.41,1.86v13.39q0,1.86-1.41,1.86h-.66a1.78,1.78,0,0,1-1.41-.93,10.16,10.16,0,0,1-1.15-2.12,6,6,0,0,0-1.47-2.13,3.1,3.1,0,0,0-2.18-.92H514.94v26.25a3.83,3.83,0,0,0,1,2.72,14.22,14.22,0,0,0,2.13,1.85c.72.52,1.09,1,1.09,1.52v.22c0,.88-.73,1.31-2.18,1.31Z"/><path class="cls-1" d="M567.44,799.08H599l-16.34-40.41Zm49.24,17.54a8.74,8.74,0,0,0,3.1,3.65c1.42,1,2.12,1.8,2.12,2.44v.23c0,.87-.68,1.3-2.07,1.3H604.48c-1.39,0-2.07-.43-2.07-1.3v-.23a1.79,1.79,0,0,1,.76-1.3,8.43,8.43,0,0,1,1.58-1.09,3.5,3.5,0,0,0,1.36-1.41,2.55,2.55,0,0,0,0-2.29l-5.23-12.86H565.59l-4.79,12.86a2.67,2.67,0,0,0-.06,2.29,3.16,3.16,0,0,0,1.31,1.41,10.29,10.29,0,0,1,1.63,1.09,1.77,1.77,0,0,1,.82,1.3v.23c0,.87-.76,1.3-2.29,1.3H551.87c-1.46,0-2.18-.43-2.18-1.3v-.23c0-.58.7-1.35,2.12-2.33a8,8,0,0,0,3-3.76L579,754.86c.5-1.24.07-2.52-1.31-3.87s-2.07-2.2-2.07-2.56v-.32c0-.81.51-1.21,1.53-1.21h6.31a5.28,5.28,0,0,1,5.13,3.6Z"/><path class="cls-1" d="M654.37,789.82q9.57,0,15.46-4.68t5.89-12.85q0-10.24-6.7-15.58t-16.62-5.34h-7.29q-2.83,0-2.84,3.71v29.63q0,5.12,4.58,5.11Zm30.49,26.8a10.42,10.42,0,0,0,3,2.88c1.2.77,2.14,1.35,2.83,1.75a1.72,1.72,0,0,1,1,1.46v.23c0,.87-.73,1.3-2.19,1.3H674.41c-1.46,0-2.18-.43-2.18-1.3v-.23q0-.75,1.14-1.62A6.3,6.3,0,0,0,675,819.5c.29-.46.11-1.43-.54-2.88l-16.34-22.55a22.54,22.54,0,0,1-2.72.11l-13.08.22v22.22a3.8,3.8,0,0,0,1,2.72,13.76,13.76,0,0,0,2.12,1.85c.73.51,1.09,1,1.09,1.52v.23c0,.87-.72,1.3-2.18,1.3H630.62c-1.45,0-2.18-.43-2.18-1.3v-.23c0-.5.65-1.28,2-2.33a4.71,4.71,0,0,0,2-3.76V754.53a4.71,4.71,0,0,0-2-3.76c-1.31-1-2-1.83-2-2.34v-.22c0-.87.73-1.31,2.18-1.31H653q14.7,0,23.75,6.05t9.15,17.92a20.38,20.38,0,0,1-4.8,13.4q-4.78,5.78-13.61,8.28Z"/><path class="cls-1" d="M783.66,816.29a6.34,6.34,0,0,0,2.45,4c1.34,1.05,2,1.86,2,2.44v.22c0,.88-.76,1.31-2.29,1.31H772.44c-1.46,0-2.18-.43-2.18-1.31v-.22c0-.5.36-1,1.09-1.52a8.8,8.8,0,0,0,2-1.9,3.66,3.66,0,0,0,.54-3l-9.58-54.36-21.89,59.92c-.66,1.53-1.61,2.29-2.83,2.29A3.17,3.17,0,0,1,736.6,822l-22.11-61.32-9.37,55.66a3.86,3.86,0,0,0,.33,2.45,3.53,3.53,0,0,0,1.42,1.53,9.55,9.55,0,0,1,1.63,1.14,1.79,1.79,0,0,1,.76,1.3v.22c0,.88-.73,1.31-2.17,1.31h-9.92c-1.45,0-2.18-.43-2.18-1.31v-.22c0-.58.66-1.4,2-2.5a6.64,6.64,0,0,0,2.39-3.92l10.57-61.54a3.89,3.89,0,0,0-1.64-3.76c-1.31-1-2-1.87-2-2.45v-.21c0-1,.62-1.43,1.85-1.43h7.2a4,4,0,0,1,4.24,2.84l21.24,61.54,21.89-61.65a3.83,3.83,0,0,1,3.92-2.73h7.74c1.09,0,1.63.4,1.63,1.21v.32a2.22,2.22,0,0,1-1.14,1.69,7.94,7.94,0,0,0-2,2.13,4.59,4.59,0,0,0-.54,3.37Z"/><path class="cls-1" d="M824.18,825.33q-14.38,0-22.55-6.48t-8.17-12.69a4.5,4.5,0,0,1,1.09-3.16,3.89,3.89,0,0,1,3.05-1.19,4.91,4.91,0,0,1,3.65,2.12,31,31,0,0,1,3,4.85,41.45,41.45,0,0,0,3.54,5.61,16,16,0,0,0,6.37,4.73,24.94,24.94,0,0,0,10.4,2q7.74,0,12.58-4.09A13.1,13.1,0,0,0,842,806.49a14,14,0,0,0-9.2-14,55.21,55.21,0,0,0-9-2.56q-5-1-10-2.18a42.56,42.56,0,0,1-9.1-3.21,15.79,15.79,0,0,1-6.64-6.37,21.54,21.54,0,0,1-2.56-11,18.86,18.86,0,0,1,7.25-15.3q7.25-5.93,19.88-5.94,12.84,0,20.52,5.67t7.68,12.09q0,4.37-4.46,4.36a4.51,4.51,0,0,1-3.65-1.85,21.3,21.3,0,0,1-2.66-4.47,40.11,40.11,0,0,0-3-5.23,13.63,13.63,0,0,0-5.5-4.46,20.92,20.92,0,0,0-9.32-1.85c-5.3,0-9.43,1.37-12.41,4.14a13.73,13.73,0,0,0-4.47,10.56,13.27,13.27,0,0,0,2.56,8.39,14.91,14.91,0,0,0,6.7,4.79,63.85,63.85,0,0,0,9.1,2.56q5,1,9.91,2.34a45.09,45.09,0,0,1,9.09,3.43,16.09,16.09,0,0,1,6.7,6.64,22.37,22.37,0,0,1,2.57,11.17c0,6.4-2.7,11.51-8.06,15.36s-12,5.77-19.83,5.77"/></svg>