<svg id="Layer_1" data-name="Layer 1" xmlns="http://www.w3.org/2000/svg" viewBox="0 0 159.45 234.95"><defs><style>.cls-1{fill:#fff;}</style></defs><title>vpf_primary</title><g id="Layer_2" data-name="Layer 2"><g id="Layer_1-2" data-name="Layer 1-2"><path class="cls-1" d="M79.72,3.68a76.12,76.12,0,0,0-76,76V156a76,76,0,0,0,152.09,0V79.72a76.13,76.13,0,0,0-76-76m0,232.11A79.81,79.81,0,0,1,0,156.07V79.72a79.73,79.73,0,0,1,159.45,0v76.35a79.82,79.82,0,0,1-79.73,79.72" transform="translate(0 -0.88)"/><path class="cls-1" d="M78.54,184.9A44.54,44.54,0,0,1,48,172.59c13.71-3.08,25.18,6.87,40.82,1.88,7.29-1.92,13.25-3.68,20.13-1.79A44.22,44.22,0,0,1,78.54,184.9m46.55-39.84c-7-5.55-12.93-7.7-18.41-8.17-.54,1.09-1.12,2.14-1.74,3.17,5.16.19,10.57,1.79,16.69,6.34a1.58,1.58,0,0,1,.6,1.5,43.56,43.56,0,0,1-2.8,9.61c-8.42-5.19-18.47-5.67-28.26-3a74.36,74.36,0,0,1-8.83,5.28,32,32,0,0,0,6.51-1.25c10-3.49,20.83-3.5,29.23,1.88a44.7,44.7,0,0,1-6.57,9.65c-7.92-2.66-15.17-1-23.46,1.32-14.29,4.92-28.66-6.15-42.55-1.42a44.7,44.7,0,0,1-6.62-9.73c12.94-7.93,23.41-2.27,35.38-.71A84,84,0,0,1,66.75,155c-9.32-2-18.27-4.28-29.2,2.39a44.09,44.09,0,0,1-2.72-9.48,1.56,1.56,0,0,1,.57-1.48,31.16,31.16,0,0,1,16.53-6.26c-.61-1-1.19-2-1.71-3a34.9,34.9,0,0,0-18.3,7.92,1.58,1.58,0,0,0-.52,1.4c8,54.85,86.2,55.12,94.25,0a1.57,1.57,0,0,0-.56-1.43" transform="translate(0 -0.88)"/><path class="cls-1" d="M78.55,151.09c-10.89-5.88-17.64-12.4-21.22-20.47-3.22-7.28-4-15.46-4-26.88H73c1.45,3.64,3.35,10.64,2.66,21.34a1.59,1.59,0,0,0,3,.79c4-8.46,4-15.42,3.91-22.13h21.17c-.19,22.39-4.52,36.73-25.2,47.35m-5-70.71a1.59,1.59,0,0,0-1.22-2.62H68.69l8.37-9.85a1.59,1.59,0,0,0-.18-2.24,1.56,1.56,0,0,0-1-.38h-3l7.32-8.62,7.33,8.62h-3a1.59,1.59,0,0,0-1.22,2.62l8.37,9.85H87.86a1.59,1.59,0,0,0-1.59,1.59,1.62,1.62,0,0,0,.38,1l9.13,10.75H64.47Zm31.75,20.17H82.55V94.32H99.22a1.58,1.58,0,0,0,1.44-.93,1.6,1.6,0,0,0-.23-1.7L91.3,81H95a1.6,1.6,0,0,0,1.6-1.6,1.67,1.67,0,0,0-.38-1l-8.37-9.85h3a1.6,1.6,0,0,0,1.45-.92,1.58,1.58,0,0,0-.24-1.7L81.34,53.18a1.58,1.58,0,0,0-1.22-.56,1.56,1.56,0,0,0-1.21.56L68.14,65.85a1.59,1.59,0,0,0,.18,2.24,1.56,1.56,0,0,0,1,.38H72.4L64,78.32a1.6,1.6,0,0,0,.1,2.26,1.56,1.56,0,0,0,1.14.42h3.7L59.81,91.69A1.6,1.6,0,0,0,61,94.32H79.37v7.84h0v1.17a61,61,0,0,1-.61,12A42.28,42.28,0,0,0,75.5,101.5a1.6,1.6,0,0,0-1.45-1H51.71a1.6,1.6,0,0,0-1.6,1.59c0,12.38.72,21.68,4.31,29.77,4,8.93,11.39,16,23.36,22.38a1.52,1.52,0,0,0,.75.19,1.58,1.58,0,0,0,.71-.17c11.39-5.69,18.65-12.64,22.85-21.84,4.26-9.37,4.85-20.11,4.85-30.33a1.59,1.59,0,0,0-1.59-1.59" transform="translate(0 -0.88)"/><path class="cls-1" d="M140.17,115a9.48,9.48,0,0,1-9,5.43,14.55,14.55,0,0,1-3.71-.5c-.88-14.21,10.36-9.28,9.68-19.16,4.49,4.48,5.1,9.81,3.06,14.23m-.8-16.49a3.18,3.18,0,0,0-2.26-.93,3.13,3.13,0,0,0-1.31.29A3.19,3.19,0,0,0,134,101c.18,2.64-.57,3.14-2.8,4.61-3,2-7.48,5-6.89,14.52a.84.84,0,0,0,.06.38h0a9,9,0,0,0-1.44,8.12,1.59,1.59,0,0,0,3-1,5.6,5.6,0,0,1,.67-4.66h.12a17.65,17.65,0,0,0,4.52.61,12.7,12.7,0,0,0,11.92-7.28c2.8-6.06,1.42-12.72-3.69-17.83" transform="translate(0 -0.88)"/><path class="cls-1" d="M32.61,120a14.55,14.55,0,0,1-3.71.5,9.48,9.48,0,0,1-9-5.43c-2-4.41-1.43-9.75,3.05-14.23-.67,9.88,10.57,5,9.69,19.16m3.12.57a2.47,2.47,0,0,0,.05-.38c.6-9.57-3.9-12.55-6.88-14.52-2.2-1.45-3-2-2.8-4.53v-.3A3.18,3.18,0,0,0,23,97.6h-.25a3.14,3.14,0,0,0-1.94.77h0a.75.75,0,0,0-.16.15c-5.11,5.1-6.49,11.77-3.7,17.82a12.73,12.73,0,0,0,11.93,7.28A17.65,17.65,0,0,0,33.4,123h.12a5.6,5.6,0,0,1,.67,4.66A1.59,1.59,0,1,0,37.08,129a1.21,1.21,0,0,0,.11-.32,9,9,0,0,0-1.45-8.12h0" transform="translate(0 -0.88)"/><path class="cls-1" d="M47,208.18c-.27-.16-.33-.35-.21-.57v-.06a1.56,1.56,0,0,1,.7-.46,1.73,1.73,0,0,0,.83-.68l4.31-7.51a1.66,1.66,0,0,0,.17-1.05,1.6,1.6,0,0,1,.05-.84V197c.13-.23.33-.26.6-.11l7.69,4.43a.67.67,0,0,1,.34.36.77.77,0,0,1-.06.52l-.85,2.36a.45.45,0,0,1-.3.3.54.54,0,0,1-.43-.06l-.1-.06a1.19,1.19,0,0,1-.49-.69,3.78,3.78,0,0,1-.2-1,3.86,3.86,0,0,0-.25-1,1.41,1.41,0,0,0-.61-.75l-1.09-.63a.83.83,0,0,0-1.16.17.78.78,0,0,0-.11.2L54,204.29l1.5.87a.89.89,0,0,0,.81,0c.31-.13.61-.26.89-.41s.49-.17.61-.1l.16.09c.23.13.26.33.11.59l-1.79,3.12c-.15.26-.34.33-.56.2l-.16-.09c-.13-.07-.21-.26-.23-.56a8,8,0,0,0-.13-.93.85.85,0,0,0-.42-.67l-1.5-.87-1.6,2.8a1.61,1.61,0,0,0-.14,1.08,1.37,1.37,0,0,1,0,.85v.07c-.13.22-.32.26-.59.1Z" transform="translate(0 -0.88)"/><path class="cls-1" d="M61.3,210.31l3.09,1-.11-4.92Zm7.26,4.79a3.32,3.32,0,0,0,.34,1.15,1.36,1.36,0,0,1,.2.86v.07c-.08.24-.26.32-.55.23l-5.12-1.61c-.29-.09-.4-.26-.32-.51v-.07a.59.59,0,0,1,.29-.31,2.38,2.38,0,0,1,.45-.23,1,1,0,0,0,.42-.32.78.78,0,0,0,.18-.55v-.9l-4.11-1.29-.54.72a.77.77,0,0,0-.17.55,1.09,1.09,0,0,0,.16.5c.09.15.17.3.25.45a.68.68,0,0,1,.05.42v.07c-.07.25-.26.33-.55.23l-2.86-.9c-.3-.09-.4-.26-.33-.5v-.07q.07-.27.66-.57a2.73,2.73,0,0,0,.93-.76l5.67-7.12a1.22,1.22,0,0,0,.08-1.13,2.58,2.58,0,0,1-.17-.91v-.07c.08-.24.27-.32.56-.23l2.6.82a1.39,1.39,0,0,1,1,1.32Z" transform="translate(0 -0.88)"/><path class="cls-1" d="M76.07,210.22a1.88,1.88,0,0,0,.24,1.23,1.19,1.19,0,0,0,.92.4h.37a1,1,0,0,0,.86-.5,3.37,3.37,0,0,0,.42-1.67,3.85,3.85,0,0,0-.5-2.25,1.65,1.65,0,0,0-1.27-1H77a.65.65,0,0,0-.56.27,1.25,1.25,0,0,0-.25.72Zm6.32,6A3.29,3.29,0,0,0,83,217l.58.56a.64.64,0,0,1,.19.45v.07q0,.39-.48.36l-5-.26c-.3,0-.45-.15-.44-.41v-.07a.89.89,0,0,1,.25-.48,1.94,1.94,0,0,0,.36-.49,1.08,1.08,0,0,0,0-.75l-1.11-2.72H75.93l-.14,2.61a1.53,1.53,0,0,0,.37,1,1.49,1.49,0,0,1,.39.77v.07q0,.39-.48.36l-4.5-.23c-.31,0-.45-.16-.44-.41v-.08a1.6,1.6,0,0,1,.42-.72,1.71,1.71,0,0,0,.43-1L72.4,207a1.7,1.7,0,0,0-.32-1,1.55,1.55,0,0,1-.34-.76v-.07c0-.26.17-.38.48-.37l5.26.28a6.82,6.82,0,0,1,4,1.29,3.61,3.61,0,0,1,1.32,3.19,3.83,3.83,0,0,1-2.31,3.29Z" transform="translate(0 -0.88)"/><path class="cls-1" d="M100.44,212.74a2.61,2.61,0,0,0,.63.84,1.64,1.64,0,0,1,.5.69v.07q.09.38-.36.48l-4.13,1q-.45.1-.54-.27v-.07a1.71,1.71,0,0,1,.19-.8,1.33,1.33,0,0,0,0-1l-2.25-5.26L93.7,216a.71.71,0,0,1-.56.72.85.85,0,0,1-.93-.34l-4.78-6.72.57,6a1.37,1.37,0,0,0,.52.91,1.62,1.62,0,0,1,.53.63v.07q.09.38-.36.48l-2.38.57c-.29.07-.47,0-.53-.27V218a1.68,1.68,0,0,1,.15-.83,2.17,2.17,0,0,0,.18-1l-.73-8.7a1.28,1.28,0,0,0-.57-.9,1.62,1.62,0,0,1-.57-.62v-.07q-.09-.37.36-.48l2.69-.64a1,1,0,0,1,1.18.45l4,6.34.58-7.39a1,1,0,0,1,.83-1l2.76-.65c.3-.07.47,0,.53.27v.07a1.63,1.63,0,0,1-.24.81,1.23,1.23,0,0,0-.09,1.06Z" transform="translate(0 -0.88)"/><path class="cls-1" d="M108.76,211a7.61,7.61,0,0,1-4,1.08,2.86,2.86,0,0,1-2.58-1.28,1.3,1.3,0,0,1,.25-1.82,1.06,1.06,0,0,1,.33-.18,1.51,1.51,0,0,1,1.06-.18,3.66,3.66,0,0,1,1,.42l1,.61A2.88,2.88,0,0,0,107,210a2.1,2.1,0,0,0,1.23-.27,1.6,1.6,0,0,0,.76-.8,1.14,1.14,0,0,0-.11-1,1.74,1.74,0,0,0-.89-.8,2.61,2.61,0,0,0-1.24-.16c-.45.05-.93.13-1.45.23s-1,.2-1.57.26a6.78,6.78,0,0,1-1.56,0,3,3,0,0,1-1.48-.58,4,4,0,0,1-1.26-1.45,3.6,3.6,0,0,1-.2-3.27,5.72,5.72,0,0,1,2.69-2.76,7,7,0,0,1,3.84-1,2.79,2.79,0,0,1,2.52,1.3,1.46,1.46,0,0,1,.19,1.15,1.52,1.52,0,0,1-.82.92,1.84,1.84,0,0,1-1.19.24,2.71,2.71,0,0,1-1.06-.42c-.32-.22-.64-.44-1-.67a3.08,3.08,0,0,0-1-.48,1.29,1.29,0,0,0-1,.12,1.23,1.23,0,0,0-.55,1.84,2.11,2.11,0,0,0,1,1,2.61,2.61,0,0,0,1.29.27,11.9,11.9,0,0,0,1.46-.19c.52-.1,1-.19,1.57-.26a7.13,7.13,0,0,1,1.53-.05,2.88,2.88,0,0,1,1.42.49,3.69,3.69,0,0,1,1.19,1.35,3.26,3.26,0,0,1,.07,3.2,6.19,6.19,0,0,1-2.71,2.67" transform="translate(0 -0.88)"/><path class="cls-1" d="M24.82,50.65q.2-.52.63-.36h.08c.21.08.42.35.64.81A4.06,4.06,0,0,0,27,52.32l9.3,8.8a1.78,1.78,0,0,1,.54,2.09,1.74,1.74,0,0,1-1.65,1.13l-13.07,1a4.67,4.67,0,0,0-1.37.34,1.66,1.66,0,0,1-1.07.18H19.6c-.29-.11-.37-.34-.24-.68L21.69,59c.13-.34.34-.46.63-.35h.08a.85.85,0,0,1,.42.54,4.11,4.11,0,0,0,.43.8.92.92,0,0,0,.76.35l8.5-.14-6.35-5.59a.93.93,0,0,0-.65-.27,1.26,1.26,0,0,0-.6.17,5.77,5.77,0,0,1-.56.27.77.77,0,0,1-.52,0h-.08c-.29-.11-.37-.33-.24-.68Z" transform="translate(0 -0.88)"/><path class="cls-1" d="M43.79,48.37c.77-.95.52-1.95-.77-3a13.8,13.8,0,0,0-3.55-2,16.22,16.22,0,0,0-4.38-1.17c-1.41-.16-2.35,0-2.8.59q-1.14,1.4.84,3A15,15,0,0,0,36.87,48a14.46,14.46,0,0,0,4.24,1.08c1.33.1,2.22-.13,2.68-.69m.6,2.2a7.71,7.71,0,0,1-5.16,2.85A7.51,7.51,0,0,1,33.3,51.6a8.2,8.2,0,0,1-3.24-5.4,7.43,7.43,0,0,1,1.82-5.81,7.6,7.6,0,0,1,5.26-2.82,7.86,7.86,0,0,1,6,1.9,7.64,7.64,0,0,1,1.17,11.1" transform="translate(0 -0.88)"/><path class="cls-1" d="M50.25,43.86c-.31.2-.54.18-.71-.08V43.7a1.8,1.8,0,0,1-.11-1,2.06,2.06,0,0,0-.28-1.26l-5.69-8.69a2.09,2.09,0,0,0-1-.76,2,2,0,0,1-.87-.5v-.07c-.17-.26-.1-.49.2-.69l4.53-3c.3-.2.54-.17.71.09l0,.07A1.76,1.76,0,0,1,47,29a1.88,1.88,0,0,0,.23,1.29l5.32,8.13a2.08,2.08,0,0,0,.86.78,1,1,0,0,0,1-.09l1.33-.87a1.83,1.83,0,0,0,.75-1.12,3.78,3.78,0,0,0,.09-1.42,7.3,7.3,0,0,1-.06-1.32,1,1,0,0,1,.34-.84l.28-.18a.5.5,0,0,1,.44-.1.49.49,0,0,1,.31.32L59.4,37a1,1,0,0,1,.12.64.79.79,0,0,1-.38.46Z" transform="translate(0 -0.88)"/><path class="cls-1" d="M62.53,36.71a.46.46,0,0,1-.66-.26v-.09a1.82,1.82,0,0,1,.17-1,1.94,1.94,0,0,0,.07-1.3L58.44,23.49l-.62.22a1.38,1.38,0,0,0-.79.73,3.38,3.38,0,0,0-.37,1.11,5.77,5.77,0,0,1-.26,1.09,1,1,0,0,1-.55.64l-.4.14a.59.59,0,0,1-.52,0,.57.57,0,0,1-.29-.43L54,23.82a.73.73,0,0,1,.46-.93l.08,0,10.82-3.73a.74.74,0,0,1,1,.37s0,0,0,.06l1.46,2.86a.57.57,0,0,1,0,.51.62.62,0,0,1-.4.34l-.39.14a1,1,0,0,1-.83-.17,5.35,5.35,0,0,1-.88-.69,3.35,3.35,0,0,0-1-.66,1.42,1.42,0,0,0-1.07-.09l-.62.22L66.34,32.6a1.91,1.91,0,0,0,.86,1,1.83,1.83,0,0,1,.77.69v.08c.1.3,0,.5-.37.62Z" transform="translate(0 -0.88)"/><path class="cls-1" d="M74.1,28.06l3.9-.21-2.19-5.48Zm10.17,2.33a3.85,3.85,0,0,0,.86,1.15,1.58,1.58,0,0,1,.59.88v.09c0,.3-.16.47-.53.49l-6.42.34c-.37,0-.56-.13-.58-.44v-.08a.71.71,0,0,1,.19-.48,3.47,3.47,0,0,1,.41-.45,1.24,1.24,0,0,0,.34-.53.92.92,0,0,0,0-.69l-.4-1-5.17.27-.3,1a1,1,0,0,0,0,.69,1.33,1.33,0,0,0,.39.49,3.07,3.07,0,0,1,.47.41.73.73,0,0,1,.23.45v.09c0,.31-.16.47-.53.49l-3.6.19c-.37,0-.56-.12-.57-.43v-.09a1.55,1.55,0,0,1,.51-.91,3.39,3.39,0,0,0,.73-1.26l3.38-10.38a1.45,1.45,0,0,0-.39-1.3,3.55,3.55,0,0,1-.57-1v-.09c0-.3.16-.47.53-.49l3.26-.17a1.68,1.68,0,0,1,1.7,1.06Z" transform="translate(0 -0.88)"/><path class="cls-1" d="M101.67,31.33l.56.25a1.25,1.25,0,0,0,1.41-.25,4.44,4.44,0,0,0,1.15-1.63,6.71,6.71,0,0,0,.67-3.33c-.09-1-.39-1.63-.92-1.86h-.06c-.52-.23-.94,0-1.25.7l-2.08,4.66a1,1,0,0,0,.3,1.38.91.91,0,0,0,.22.11m-8.19,3.56c-.34-.15-.44-.37-.32-.65v-.08a2,2,0,0,1,.78-.63,2,2,0,0,0,.9-.92l4.23-9.48a2,2,0,0,0,.08-1.29,1.7,1.7,0,0,1,0-1v-.08c.13-.28.36-.35.7-.2L105.23,23a9,9,0,0,1,4.19,3.3,4.5,4.5,0,0,1,.12,4.41,5,5,0,0,1-3.21,2.94,6.63,6.63,0,0,1-4.79-.46L100,32.45l-.91,2a2,2,0,0,0,0,1.31,1.71,1.71,0,0,1,.1,1v.08c-.13.29-.36.35-.7.2Z" transform="translate(0 -0.88)"/><path class="cls-1" d="M105.82,40.44l.06-.07a1.78,1.78,0,0,1,.9-.44,2,2,0,0,0,1.09-.68L114.16,31a1.94,1.94,0,0,0,.37-1.23,1.92,1.92,0,0,1,.18-1l.06-.08q.27-.36.72,0l4.25,3.24c.29.22.35.46.16.7l-.06.07a1.71,1.71,0,0,1-.94.41,1.84,1.84,0,0,0-1.14.65L111.47,42a1.85,1.85,0,0,0-.32,1.27,1.8,1.8,0,0,1-.14,1l-.05.07q-.28.36-.72,0L106,41.14c-.29-.22-.34-.46-.16-.7" transform="translate(0 -0.88)"/><path class="cls-1" d="M133.39,47.14q.35.44,0,.72l-.07.06a1.81,1.81,0,0,1-1,.15,1.89,1.89,0,0,0-1.26.34l-9.36,7.33a1,1,0,0,1-1.41,0,1,1,0,0,1-.2-.25l-.89-1.13a1.66,1.66,0,0,1-.18-1.48L122.09,41l-6.24,4.89a1.87,1.87,0,0,0-.62,1.16,1.77,1.77,0,0,1-.38,1l-.07.06c-.24.19-.48.14-.7-.15l-1.9-2.42q-.33-.43,0-.72h.07a1.82,1.82,0,0,1,1-.2,2,2,0,0,0,1.23-.39l8.17-6.4a2,2,0,0,0,.67-1.1,1.8,1.8,0,0,1,.43-.9l.07-.06c.24-.19.47-.14.7.15l2.32,3A1.59,1.59,0,0,1,127,40.4l-3.17,10.93,5.79-4.54a1.88,1.88,0,0,0,.64-1.13,1.8,1.8,0,0,1,.4-.94l.07-.06c.24-.19.48-.14.71.15Z" transform="translate(0 -0.88)"/><path class="cls-1" d="M121.7,58.55a.47.47,0,0,1,.25-.67H122a1.8,1.8,0,0,1,1,.12,2,2,0,0,0,1.28,0l9.76-3.54a2,2,0,0,0,1-.83,2,2,0,0,1,.69-.74h.08c.29-.1.5,0,.63.37L140,62.88a.88.88,0,0,1,0,.6,1,1,0,0,1-.45.42L137,65.41a.57.57,0,0,1-.51,0,.59.59,0,0,1-.35-.39V64.9a1.38,1.38,0,0,1,.08-1,4.82,4.82,0,0,1,.58-1.07,4.45,4.45,0,0,0,.57-1.13,1.77,1.77,0,0,0,0-1.16L137,59.37a1,1,0,0,0-1.21-.74,1.3,1.3,0,0,0-.25.1l-3.78,1.37.64,1.76a1.21,1.21,0,0,0,.55.63,2.15,2.15,0,0,0,.78.24,3.72,3.72,0,0,1,.74.14.61.61,0,0,1,.44.32l.07.21c.11.29,0,.5-.36.62l-4,1.47a.48.48,0,0,1-.68-.25l-.07-.21a.61.61,0,0,1,.11-.51,3.14,3.14,0,0,1,.45-.57,2.06,2.06,0,0,0,.41-.68,1.16,1.16,0,0,0,0-.82L130,60.7l-3.4,1.24a2.3,2.3,0,0,0-1,.74,1.26,1.26,0,0,0-.12,1.23l.55,1.5a1.52,1.52,0,0,0,.76.82,3.88,3.88,0,0,0,1.2.41,4,4,0,0,1,1.17.36,1.34,1.34,0,0,1,.74.72l.07.21a.46.46,0,0,1-.07.48.7.7,0,0,1-.43.26l-3,.59a1.16,1.16,0,0,1-.64,0,.79.79,0,0,1-.36-.48Z" transform="translate(0 -0.88)"/></g></g></svg>